<svg width="111" height="31" viewBox="0 0 111 31" fill="none" xmlns="http://www.w3.org/2000/svg">
<path d="M30 15.791C30 24.0753 23.2843 30.791 15 30.791C6.71573 30.791 0 24.0753 0 15.791C0 7.50674 6.71573 0.791016 15 0.791016C23.2843 0.791016 30 7.50674 30 15.791Z" fill="#050C12"/>
<path d="M13.5135 11.5021V13.4296H12V15.7865H13.5135V22.791H16.6201V15.7872H18.7054C18.7054 15.7872 18.9008 14.6571 18.9955 13.4212H16.6328V11.8093C16.6328 11.5687 16.971 11.2446 17.3062 11.2446H19V8.79102H16.6975C13.4361 8.79102 13.5135 11.15 13.5135 11.5021Z" fill="white"/>
<path d="M70 15.791C70 24.0753 63.2843 30.791 55 30.791C46.7157 30.791 40 24.0753 40 15.791C40 7.50674 46.7157 0.791016 55 0.791016C63.2843 0.791016 70 7.50674 70 15.791Z" fill="#050C12"/>
<path d="M62 9.79774C61.3906 10.2495 60.7159 10.595 60.0018 10.8209C59.6186 10.3578 59.1092 10.0296 58.5427 9.88062C57.9761 9.73164 57.3797 9.76911 56.8341 9.98797C56.2884 10.2068 55.8199 10.5965 55.4919 11.1043C55.1639 11.6121 54.9922 12.2135 55 12.8272V13.496C53.8817 13.5265 52.7735 13.2658 51.7743 12.7372C50.775 12.2087 49.9157 11.4286 49.2727 10.4665C49.2727 10.4665 46.7273 16.4853 52.4545 19.1604C51.144 20.0953 49.5827 20.564 48 20.4979C53.7273 23.8417 60.7273 20.4979 60.7273 12.8072C60.7267 12.6209 60.7096 12.4351 60.6764 12.2521C61.3258 11.579 61.7842 10.7291 62 9.79774Z" fill="white"/>
<path d="M111 15.791C111 24.0753 104.284 30.791 96 30.791C87.7157 30.791 81 24.0753 81 15.791C81 7.50674 87.7157 0.791016 96 0.791016C104.284 0.791016 111 7.50674 111 15.791Z" fill="#050C12"/>
<path d="M98.5799 13.8965C99.6687 13.8965 100.713 14.329 101.483 15.0989C102.253 15.8688 102.685 16.913 102.685 18.0017V22.7912H99.9483V18.0017C99.9483 17.6388 99.8041 17.2908 99.5475 17.0341C99.2909 16.7775 98.9428 16.6333 98.5799 16.6333C98.2169 16.6333 97.8689 16.7775 97.6123 17.0341C97.3556 17.2908 97.2115 17.6388 97.2115 18.0017V22.7912H94.4746V18.0017C94.4746 16.913 94.9071 15.8688 95.677 15.0989C96.4469 14.329 97.4911 13.8965 98.5799 13.8965Z" fill="white"/>
<path d="M91.7368 14.5801H89V22.7906H91.7368V14.5801Z" fill="white"/>
<path d="M90.3684 12.5279C91.1242 12.5279 91.7368 11.9152 91.7368 11.1594C91.7368 10.4037 91.1242 9.79102 90.3684 9.79102C89.6127 9.79102 89 10.4037 89 11.1594C89 11.9152 89.6127 12.5279 90.3684 12.5279Z" fill="white"/>
</svg>
